M48
;Layer_Color=9474304
;FILE_FORMAT=2:5
INCH,LZ
;TYPE=PLATED
T1F00S00C0.01181
T2F00S00C0.03543
T4F00S00C0.03937
T5F00S00C0.04331
T6F00S00C0.07874
T7F00S00C0.13780
%
T01
X0098425Y0002953
X0106299
X0114173
X0115157Y0015748
Y0019685
Y0023622
X0115157Y0027559
X0115157Y0035433
Y003937
Y0043307
Y0047244
Y0056102
Y0060039
Y0063976
Y0067913
Y0075787
Y0079724
Y0083661
Y0087598
X0110236Y0090551
X0102362
X0114173Y0098425
X009941Y0031496
X0106299Y0019685
X0133859Y0011811
X0129921Y0003937
X0130905Y0031496
X0094488Y0043307
X0086614
X007874
X0082677Y0051181
X0090551
Y0019685
X0082677
X0074803
X0066929
X007185Y0029528
X0062992Y0045276
X0027559Y0051181
X0019685
X0011811
X0003937
X0008858Y0041339
X0018701
X001378Y0036417
X0003937
X0008858Y0031496
X0018701
Y0021654
Y0011811
Y0002165
X001378Y000689
X0008858Y0002165
X0003937Y000689
X001378Y0016732
Y0026575
X0003937
X0043307Y0019685
X0066929Y0002953
X0074803
X0082677
X0090551
X0094488Y0095472
X0090551Y009941
X007874Y0095472
X0070866
X0049213Y0095472
X0045276Y0081693
X0029528Y009941
X0025591Y0095473
X0015748Y0090551
X0007874
X0003937Y0082677
X0025591Y0110236
X0035433Y0114173
X0043307
X0051181
X0059055
X0066929
X0074803
X007874Y0106299
X0070866
X0062992
X0055118
X0047244
X003937
Y0122047
X0047244
X0043307Y0129921
X0035433
X0025591Y0125
Y0146653
Y016437
X0029528Y0160433
X0041339Y016437
X005315Y016437
X0055118Y0153543
X0062992
X0070866
X007874
X0077756Y0143701
X0071653
X0077165Y0131496
X0086614Y0129528
X0094488Y0136811
Y0148622
Y016437
X0090551Y0160433
X0082677Y016437
X0076772Y0166142
X0094488Y018504
X0093504Y020374
X0083661Y020374
X0077756
X007185
X0065945
X0062992Y0208661
X0059055Y0207677
X0062992Y0216536
X0066929Y0213583
X0074803
X0082677
X0086614Y0216536
X0090551Y022441
X0082677
X0074803
X0066929
X0043307
X0035433
X003937Y0216536
X0047244
X0031496
Y0200788
X003937
X0043307Y0192914
X0035433
X0027559
X0031496Y018504
X003937
X0047244
X0055118
X0059055Y0192914
X0023622Y018504
X0019685Y0177166
X0011811
X0015748Y0169291
Y0200788
X0007874
X0003937Y0208662
Y0192914
X003937Y0153543
X0047244
X0042323Y0143701
X0047244Y0137795
X0070866Y0122047
X0094488Y0117126
X0110236Y0106299
X011811
X0112894Y0129035
X0116732Y0138484
X0115551Y017185
Y0179724
Y0187598
X011811Y0200788
Y0216536
X0125984
X0129921Y0208662
X0122047Y022441
X0097441Y0208661
X0101378Y020374
X009941Y0187008
X0098425Y0177166
X0106299
X0102362Y0169291
X0130905Y016437
T02
X0005906Y0097441
Y0105315
Y0113189
Y0121063
Y0128937
Y0136811
Y0144685
Y0152559
Y0160433
Y0168307
Y0176181
Y0184055
T04
X0040197Y0052165
Y0062165
X0050197
Y0052165
Y0072165
X0040197
X012002Y0113465
Y0123465
Y0133465
Y0143465
X013002
Y0133465
Y0123465
Y0113465
Y0153465
X012002
T05
X0139606Y0007874
X0149606
Y0017874
Y0027874
Y0037874
X0139606
Y0027874
Y0017874
Y0047874
X0149606
Y0057874
Y0067874
X0139606
Y0057874
Y0077874
X0149606
Y0087874
Y0097874
X0139606
Y0087874
X0058071Y0037874
Y0027874
Y0017874
Y0007874
X0139606Y0107874
X0149606
Y0117874
Y0127874
X0139606
Y0117874
Y0137874
X0149606
Y0147874
Y0157874
X0139606
Y0147874
Y0167874
X0149606
Y0177874
Y0187874
X0139606
Y0177874
Y0197874
X0149606
T06
X0060039Y0129921
T07
X0015748Y0070866
Y0220472
X0141732
M30
